<svg width="25" height="25" viewBox="0 0 25 25" fill="none" xmlns="http://www.w3.org/2000/svg">
<g id="ant-design:whats-app-outlined">
<path id="Vector" d="M17.0358 14.331C16.7763 14.1976 15.4834 13.5643 15.2429 13.4786C15.0025 13.3881 14.8263 13.3452 14.6525 13.6119C14.4763 13.8762 13.9763 14.4643 13.8191 14.6429C13.6668 14.8191 13.512 14.8405 13.2525 14.7095C11.7096 13.9381 10.6977 13.3333 9.68104 11.5881C9.41199 11.1238 9.95008 11.1571 10.4525 10.1548C10.5382 9.97858 10.4953 9.82858 10.4287 9.69525C10.362 9.56191 9.83818 8.27143 9.61913 7.74524C9.40723 7.23334 9.18818 7.30477 9.02866 7.29524C8.87627 7.28572 8.70246 7.28572 8.52627 7.28572C8.35008 7.28572 8.06675 7.35239 7.82627 7.61191C7.5858 7.8762 6.90723 8.51191 6.90723 9.80239C6.90723 11.0929 7.8477 12.3429 7.97627 12.5191C8.10961 12.6952 9.82627 15.3429 12.462 16.4833C14.1287 17.2024 14.781 17.2643 15.6144 17.1405C16.1215 17.0643 17.1667 16.5071 17.3834 15.8905C17.6001 15.2762 17.6001 14.75 17.5358 14.6405C17.4715 14.5238 17.2953 14.4571 17.0358 14.331Z" fill="white"/>
<path id="Vector_2" d="M22.0767 8.10476C21.5386 6.82619 20.7672 5.67857 19.7838 4.69286C18.8005 3.70952 17.6529 2.93571 16.3719 2.4C15.0624 1.85 13.6719 1.57143 12.2386 1.57143H12.191C10.7481 1.57857 9.35048 1.86428 8.0362 2.42619C6.76715 2.96905 5.62906 3.74047 4.65525 4.72381C3.68144 5.70714 2.91715 6.85 2.38858 8.12381C1.84096 9.44286 1.56477 10.8452 1.57191 12.2881C1.57906 13.9405 1.97429 15.581 2.71477 17.0476V20.6667C2.71477 21.2714 3.20525 21.7619 3.81001 21.7619H7.43144C8.8981 22.5024 10.5386 22.8976 12.191 22.9048H12.241C13.6672 22.9048 15.0505 22.6286 16.3529 22.0881C17.6267 21.5571 18.7719 20.7952 19.7529 19.8214C20.7362 18.8476 21.51 17.7095 22.0505 16.4405C22.6124 15.1262 22.8981 13.7286 22.9052 12.2857C22.9124 10.8357 22.6314 9.42857 22.0767 8.10476ZM18.4791 18.5333C16.81 20.1857 14.5957 21.0952 12.2386 21.0952H12.1981C10.7624 21.0881 9.3362 20.731 8.07667 20.0595L7.87667 19.9524H4.52429V16.6L4.41715 16.4C3.74572 15.1405 3.38858 13.7143 3.38144 12.2786C3.37191 9.90476 4.27906 7.67619 5.94334 5.99762C7.60525 4.31905 9.82667 3.39047 12.2005 3.38095H12.241C13.4314 3.38095 14.5862 3.6119 15.6743 4.06905C16.7362 4.51428 17.6886 5.15476 18.5076 5.97381C19.3243 6.79047 19.9671 7.74524 20.4124 8.80714C20.8743 9.90714 21.1052 11.0738 21.1005 12.2786C21.0862 14.65 20.1552 16.8714 18.4791 18.5333Z" fill="white"/>
</g>
</svg>
